Coordinates
version=1
nRows=22
nColumns=24
inDegrees=yes

Units are S.I. units (second, meters, Newtons, ...)
Angles are in degrees.

endheader
time	pelvis_tilt	pelvis_list	pelvis_rotation	pelvis_tx	pelvis_ty	pelvis_tz	hip_flexion_r	hip_adduction_r	hip_rotation_r	knee_angle_r	ankle_angle_r	subtalar_angle_r	mtp_angle_r	hip_flexion_l	hip_adduction_l	hip_rotation_l	knee_angle_l	ankle_angle_l	subtalar_angle_l	mtp_angle_l	lumbar_extension	lumbar_bending	lumbar_rotation
     12.10000000	     61.86000752	      4.27492593	      7.68016741	      0.77782049	      1.08453633	     -0.27328090	     -4.91318301	    -12.61928759	     -4.09358727	    -52.05020917	    -16.49384402	      0.67942364	     47.30926492	      7.59483116	    -17.86773694	      1.31244353	    -64.47099004	     -5.65239612	     15.13541262	    -41.62313276	      0.00000000	      0.00000000	      0.00000000
     12.11000000	     61.85442996	      4.27469168	      7.69338172	      0.77786873	      1.08450011	     -0.27336919	     -4.92916781	    -12.62369158	     -4.06468049	    -51.99527079	    -16.47408536	      0.68887712	     47.20654104	      7.59912715	    -17.94284619	      1.51898127	    -64.83355879	     -5.68362996	     15.09335415	    -42.03117126	      0.00000000	      0.00000000	      0.00000000
     12.12000000	     61.84896116	      4.27483261	      7.70576445	      0.77791636	      1.08445782	     -0.27346229	     -4.94081947	    -12.62561579	     -4.03894899	    -51.94014557	    -16.46187114	      0.69754561	     47.13342943	      7.60501983	    -18.01912621	      1.72964919	    -65.18102184	     -5.71919207	     15.06180322	    -42.45382739	      0.00000000	      0.00000000	      0.00000000
     12.13000000	     61.84261350	      4.27494778	      7.71715757	      0.77794665	      1.08444115	     -0.27355224	     -4.94763882	    -12.62500794	     -4.01832118	    -51.88758123	    -16.45987498	      0.70534148	     47.09942958	      7.60731296	    -18.09634399	      1.94633781	    -65.50149069	     -5.75589542	     15.04532754	    -42.90079544	      0.00000000	      0.00000000	      0.00000000
     12.14000000	     61.83394764	      4.27243743	      7.72909483	      0.77795404	      1.08447998	     -0.27361877	     -4.94786077	    -12.62174724	     -4.00366348	    -51.84136265	    -16.46708226	      0.71389131	     47.10907218	      7.59933488	    -18.17399272	      2.17244125	    -65.78088644	     -5.79160977	     15.04403977	    -43.37471197	      0.00000000	      0.00000000	      0.00000000
     12.15000000	     61.82138425	      4.26465633	      7.74345230	      0.77795622	      1.08454435	     -0.27365827	     -4.93919739	    -12.61629034	     -3.99459591	    -51.80326967	    -16.47914694	      0.72617425	     47.16086733	      7.57562737	    -18.25217861	      2.41106519	    -66.00980889	     -5.82622547	     15.05267692	    -43.86689540	      0.00000000	      0.00000000	      0.00000000
     12.16000000	     61.80404528	      4.25197446	      7.75986522	      0.77798426	      1.08453664	     -0.27370937	     -4.92197007	    -12.60966013	     -3.98945834	    -51.77113611	    -16.49003366	      0.74566183	     47.24685965	      7.53668454	    -18.33179115	      2.66206291	    -66.19138696	     -5.86156935	     15.06064784	    -44.35603881	      0.00000000	      0.00000000	      0.00000000
     12.17000000	     61.78375392	      4.23861923	      7.77491377	      0.77803901	      1.08441255	     -0.27381627	     -4.90158292	    -12.60312275	     -3.98540243	    -51.73923365	    -16.49429447	      0.77510502	     47.35301585	      7.49284171	    -18.41311628	      2.91903108	    -66.34511359	     -5.90022115	     15.05367038	    -44.81032728	      0.00000000	      0.00000000	      0.00000000
     12.18000000	     61.76602223	      4.22965705	      7.78508215	      0.77806911	      1.08428225	     -0.27394891	     -4.88703904	    -12.59800843	     -3.97909691	    -51.70111415	    -16.48897126	      0.81514941	     47.46056213	      7.46214302	    -18.49388128	      3.16878167	    -66.50192168	     -5.94388455	     15.01735974	    -45.19271139	      0.00000000	      0.00000000	      0.00000000
     12.19000000	     61.75694314	      4.22785609	      7.79009755	      0.77803929	      1.08425016	     -0.27402758	     -4.88564675	    -12.59513130	     -3.96877152	    -51.65400707	    -16.47427550	      0.86310303	     47.54820209	      7.46047405	    -18.56989019	      3.39633559	    -66.68994577	     -5.99219760	     14.94209189	    -45.46825132	      0.00000000	      0.00000000	      0.00000000
     12.20000000	     61.75904998	      4.23309191	      7.79257874	      0.77797775	      1.08428143	     -0.27401081	     -4.89770077	    -12.59412551	     -3.95657798	    -51.60266519	    -16.45290061	      0.91242346	     47.59494718	      7.49166658	    -18.63790628	      3.59333671	    -66.91925493	     -6.04256507	     14.82727707	    -45.61177782	      0.00000000	      0.00000000	      0.00000000
     12.21000000	     61.76978331	      4.24307255	      7.79544310	      0.77791666	      1.08430819	     -0.27393439	     -4.91535392	    -12.59393896	     -3.94876491	    -51.55965545	    -16.42842314	      0.95351107	     47.58316994	      7.54515139	    -18.69795581	      3.76336519	    -67.17587789	     -6.09096075	     14.68279209	    -45.61386192	      0.00000000	      0.00000000	      0.00000000
     12.22000000	     61.78277130	      4.25480134	      7.79988870	      0.77784932	      1.08430432	     -0.27390670	     -4.92697237	    -12.59407503	     -3.95285559	    -51.53989439	    -16.40329982	      0.97593895	     47.50145821	      7.60194328	    -18.75352870	      3.91989422	    -67.42845509	     -6.13314571	     14.52641358	    -45.48347864	      0.00000000	      0.00000000	      0.00000000
     12.23000000	     61.79252734	      4.26549891	      7.80501165	      0.77776810	      1.08428993	     -0.27398206	     -4.92406812	    -12.59550798	     -3.97349458	    -51.55105347	    -16.37713780	      0.97150517	     47.34684699	      7.64611708	    -18.80842835	      4.07745282	    -67.64421918	     -6.16580762	     14.37827170	    -45.24670635	      0.00000000	      0.00000000	      0.00000000
     12.24000000	     61.79759200	      4.27324156	      7.80900766	      0.77770117	      1.08428225	     -0.27407166	     -4.90567749	    -12.59995455	     -4.01008327	    -51.58766158	    -16.34668866	      0.93704716	     47.12600852	      7.67218365	    -18.86352139	      4.24280740	    -67.80408259	     -6.18738443	     14.25487008	    -44.94192078	      0.00000000	      0.00000000	      0.00000000
     12.25000000	     61.79887047	      4.27868987	      7.80999288	      0.77767127	      1.08427009	     -0.27407643	     -4.87752962	    -12.60693384	     -4.05812503	    -51.63515762	    -16.30841953	      0.87609252	     46.85504933	      7.68331962	    -18.91691601	      4.41275596	    -67.90723225	     -6.19837097	     14.16497316	    -44.61285216	      0.00000000	      0.00000000	      0.00000000
     12.26000000	     61.79733480	      4.28519880	      7.80651150	      0.77765997	      1.08424602	     -0.27401441	     -4.84782566	    -12.61240592	     -4.11173611	    -51.67928400	    -16.26213297	      0.79881508	     46.55778810	      7.68577775	    -18.96607787	      4.57817285	    -67.96515339	     -6.20101644	     14.10843381	    -44.30125287	      0.00000000	      0.00000000	      0.00000000
     12.27000000	     61.79370961	      4.29526821	      7.79949953	      0.77764057	      1.08420818	     -0.27396506	     -4.82306064	    -12.61219779	     -4.16396463	    -51.71271508	    -16.21311182	      0.72012410	     46.26273126	      7.68455881	    -19.00977494	      4.73016289	    -67.99166027	     -6.19858961	     14.07783767	    -44.04072033	      0.00000000	      0.00000000	      0.00000000
     12.28000000	     61.78936879	      4.30709086	      7.79353133	      0.77760988	      1.08416563	     -0.27395130	     -4.80597288	    -12.60684603	     -4.20611191	    -51.73591518	    -16.17123826	      0.65610826	     45.99923758	      7.68210482	    -19.04903507	      4.86466349	    -67.99561300	     -6.19447224	     14.06195584	    -43.85265934	      0.00000000	      0.00000000	      0.00000000
     12.29000000	     61.78634651	      4.31654004	      7.79345029	      0.77758427	      1.08414032	     -0.27393451	     -4.79588092	    -12.60115743	     -4.23014343	    -51.75369981	    -16.14715379	      0.61964602	     45.79348072	      7.67928146	    -19.08651974	      4.98334338	    -67.97915299	     -6.19126937	     14.04960262	    -43.74472780	      0.00000000	      0.00000000	      0.00000000
     12.30000000	     61.78575578	      4.32248414	      7.79911689	      0.77757361	      1.08414246	     -0.27389943	     -4.79034129	    -12.59847543	     -4.23383114	    -51.77087401	    -16.14743346	      0.61662114	     45.66481889	      7.67647942	    -19.12425994	      5.09055022	    -67.94039905	     -6.19009957	     14.03260667	    -43.71159316	      0.00000000	      0.00000000	      0.00000000
     12.31000000	     61.78682995	      4.32750234	      7.80563397	      0.77756764	      1.08416332	     -0.27386723	     -4.78667316	    -12.59790616	     -4.22259075	    -51.78955985	    -16.17164440	      0.64431729	     45.62311311	      7.67369966	    -19.16152847	      5.18890294	    -67.87729977	     -6.19025036	     14.00713675	    -43.73749173	      0.00000000	      0.00000000	      0.00000000
